<?xml version="1.0" encoding="UTF-8" standalone="no"?>
<svg
   xmlns:dc="http://purl.org/dc/elements/1.1/"
   xmlns:cc="http://creativecommons.org/ns#"
   xmlns:rdf="http://www.w3.org/1999/02/22-rdf-syntax-ns#"
   xmlns:svg="http://www.w3.org/2000/svg"
   xmlns="http://www.w3.org/2000/svg"
   xmlns:xlink="http://www.w3.org/1999/xlink"
   xmlns:sodipodi="http://sodipodi.sourceforge.net/DTD/sodipodi-0.dtd"
   xmlns:inkscape="http://www.inkscape.org/namespaces/inkscape"
   width="696"
   height="600"
   viewBox="0 0 696 600"
   version="1.1"
   id="svg3781"
   sodipodi:docname="Figure8knot-rose-limacon-curve_colored.svg"
   inkscape:version="0.92.4 (5da689c313, 2019-01-14)">
  <metadata
     id="metadata3785">
    <rdf:RDF>
      <cc:Work
         rdf:about="">
        <dc:format>image/svg+xml</dc:format>
        <dc:type
           rdf:resource="http://purl.org/dc/dcmitype/StillImage" />
        <dc:title>Symmetric 4-crossing knot based on generalization of the Limacon and Rose curves.</dc:title>
      </cc:Work>
    </rdf:RDF>
  </metadata>
  <sodipodi:namedview
     pagecolor="#ffffff"
     bordercolor="#666666"
     borderopacity="1"
     objecttolerance="10"
     gridtolerance="10"
     guidetolerance="10"
     inkscape:pageopacity="0"
     inkscape:pageshadow="2"
     inkscape:window-width="3000"
     inkscape:window-height="1890"
     id="namedview3783"
     showgrid="false"
     inkscape:zoom="2.6833333"
     inkscape:cx="348"
     inkscape:cy="300"
     inkscape:window-x="-12"
     inkscape:window-y="-12"
     inkscape:window-maximized="1"
     inkscape:current-layer="svg3781" />
  <title
     id="title3750">Symmetric 4-crossing knot based on generalization of the Limacon and Rose curves.</title>
  <defs
     id="defs3753">
    <path
       id="Main"
       d="M395.98,395.98 L391.272,405.174 L386.363,414.323 L381.252,423.423 L375.939,432.469 L370.426,441.456 L364.711,450.381 L358.795,459.237 L352.679,468.021 L346.363,476.728 L339.847,485.352 L333.133,493.89 L326.222,502.337 L319.113,510.688 L311.809,518.937 L304.311,527.081 L296.619,535.115 L288.737,543.034 L280.664,550.834 L272.403,558.509 L263.956,566.055 L255.324,573.467 L246.51,580.741 L237.516,587.873 L228.344,594.857 L218.997,601.689 L209.477,608.366 L199.787,614.881 L189.93,621.232 L179.908,627.413 L169.725,633.421 L159.383,639.25 L148.887,644.898 L138.239,650.36 L127.442,655.632 L116.501,660.709 L105.419,665.589 L94.2,670.267 L82.8477,674.74 L71.3662,679.003 L59.7595,683.054 L48.032,686.889 L36.1877,690.504 L24.2314,693.896 L12.1672,697.063 L0,700 L-12.2656,702.705 L-24.6252,705.175 L-37.0737,707.406 L-49.606,709.397 L-62.2173,711.146 L-74.9023,712.648 L-87.6563,713.903 L-100.474,714.907 L-113.349,715.659 L-126.278,716.156 L-139.253,716.397 L-152.271,716.381 L-165.326,716.104 L-178.411,715.566 L-191.521,714.766 L-204.651,713.702 L-217.794,712.373 L-230.946,710.778 L-244.1,708.917 L-257.25,706.787 L-270.39,704.39 L-283.515,701.725 L-296.619,698.79 L-309.696,695.587 L-322.739,692.115 L-335.743,688.374 L-348.701,684.365 L-361.609,680.087 L-374.459,675.542 L-387.246,670.73 L-399.964,665.652 L-412.607,660.309 L-425.169,654.702 L-437.643,648.833 L-450.025,642.702 L-462.308,636.312 L-474.486,629.663 L-486.553,622.759 L-498.504,615.601 L-510.333,608.19 L-522.033,600.531 L-533.601,592.623 L-545.028,584.471 L-556.312,576.077 L-567.444,567.444 L-578.421,558.574 L-589.236,549.472 L-599.885,540.139 L-610.362,530.58 L-620.662,520.797 L-630.78,510.796 L-640.71,500.578 L-650.449,490.148 L-659.99,479.511 L-669.329,468.67 L-678.462,457.629 L-687.384,446.393 L-696.09,434.965 L-704.576,423.352 L-712.837,411.557 L-720.87,399.585 L-728.671,387.441 L-736.235,375.13 L-743.558,362.658 L-750.637,350.028 L-757.469,337.247 L-764.049,324.32 L-770.375,311.252 L-776.442,298.048 L-782.249,284.716 L-787.792,271.259 L-793.068,257.684 L-798.074,243.996 L-802.809,230.202 L-807.269,216.307 L-811.451,202.318 L-815.355,188.24 L-818.978,174.079 L-822.318,159.843 L-825.374,145.536 L-828.143,131.165 L-830.625,116.737 L-832.817,102.257 L-834.72,87.7327 L-836.332,73.1694 L-837.651,58.5745 L-838.678,43.9531 L-839.412,29.3127 L-839.853,14.6597 L-840,0 L-839.853,-14.6597 L-839.412,-29.3127 L-838.678,-43.9531 L-837.651,-58.5745 L-836.332,-73.1694 L-834.72,-87.7327 L-832.817,-102.257 L-830.625,-116.737 L-828.143,-131.165 L-825.374,-145.536 L-822.318,-159.843 L-818.978,-174.079 L-815.355,-188.24 L-811.451,-202.318 L-807.269,-216.307 L-802.809,-230.202 L-798.074,-243.996 L-793.068,-257.684 L-787.792,-271.259 L-782.249,-284.716 L-776.442,-298.048 L-770.375,-311.252 L-764.049,-324.32 L-757.469,-337.247 L-750.637,-350.028 L-743.558,-362.658 L-736.235,-375.13 L-728.671,-387.441 L-720.87,-399.585 L-712.837,-411.557 L-704.576,-423.352 L-696.09,-434.965 L-687.384,-446.393 L-678.462,-457.629 L-669.329,-468.67 L-659.99,-479.511 L-650.449,-490.148 L-640.71,-500.578 L-630.78,-510.796 L-620.662,-520.797 L-610.362,-530.58 L-599.885,-540.139 L-589.236,-549.472 L-578.421,-558.574 L-567.444,-567.444 L-556.312,-576.077 L-545.028,-584.471 L-533.601,-592.623 L-522.033,-600.531 L-510.333,-608.19 L-498.504,-615.601 L-486.553,-622.759 L-474.486,-629.663 L-462.308,-636.312 L-450.025,-642.702 L-437.643,-648.833 L-425.169,-654.702 L-412.607,-660.309 L-399.964,-665.652 L-387.246,-670.73 L-374.459,-675.542 L-361.609,-680.087 L-348.701,-684.365 L-335.743,-688.374 L-322.739,-692.115 L-309.696,-695.587 L-296.619,-698.79 L-283.515,-701.725 L-270.39,-704.39 L-257.25,-706.787 L-244.1,-708.917 L-230.946,-710.778 L-217.794,-712.373 L-204.651,-713.702 L-191.521,-714.766 L-178.411,-715.566 L-165.326,-716.104 L-152.271,-716.381 L-139.253,-716.397 L-126.278,-716.156 L-113.349,-715.659 L-100.474,-714.907 L-87.6563,-713.903 L-74.9023,-712.648 L-62.2173,-711.146 L-49.6057,-709.398 L-37.0737,-707.406 L-24.6252,-705.175 L-12.2656,-702.705 L0,-700 L12.1672,-697.063 L24.2314,-693.896 L36.1877,-690.504 L48.032,-686.889 L59.7595,-683.054 L71.3662,-679.003 L82.8479,-674.74 L94.2,-670.267 L105.419,-665.589 L116.501,-660.709 L127.442,-655.632 L138.239,-650.36 L148.887,-644.898 L159.383,-639.25 L169.725,-633.421 L179.908,-627.413 L189.93,-621.232 L199.787,-614.881 L209.477,-608.366 L218.997,-601.689 L228.344,-594.857 L237.516,-587.873 L246.51,-580.741 L255.324,-573.467 L263.956,-566.055 L272.403,-558.509 L280.664,-550.834 L288.737,-543.034 L296.619,-535.115 L304.311,-527.081 L311.809,-518.937 L319.113,-510.688 L326.222,-502.337 L333.133,-493.89 L339.847,-485.352 L346.363,-476.728 L352.679,-468.021 L358.795,-459.237 L364.711,-450.381 L370.426,-441.456 L375.94,-432.469 L381.252,-423.423 L386.363,-414.323 L391.272,-405.174 L395.98,-395.98 L400.486,-386.746 L404.793,-377.476 L408.899,-368.174 L412.805,-358.846 L416.513,-349.496 L420.022,-340.128 L423.335,-330.745 L426.45,-321.354 L429.371,-311.957 L432.098,-302.558 L434.631,-293.163 L436.973,-283.774 L439.126,-274.396 L441.09,-265.033 L442.866,-255.689 L444.458,-246.367 L445.866,-237.072 L447.093,-227.806 L448.14,-218.573 L449.01,-209.377 L449.703,-200.221 L450.223,-191.109 L450.573,-182.043 L450.752,-173.028 L450.766,-164.065 L450.615,-155.159 L450.302,-146.312 L449.829,-137.527 L449.199,-128.806 L448.416,-120.153 L447.48,-111.57 L446.396,-103.059 L445.165,-94.6228 L443.79,-86.2642 L442.275,-77.9851 L440.621,-69.7876 L438.832,-61.6741 L436.911,-53.646 L434.861,-45.7058 L432.683,-37.855 L430.382,-30.0952 L427.96,-22.4285 L425.421,-14.856 L422.766,-7.37939 L420,0 L417.124,7.28101 L414.143,14.4622 L411.058,21.5427 L407.874,28.5215 L404.592,35.397 L401.216,42.1694 L397.749,48.8374 L394.193,55.4001 L390.552,61.8574 L386.828,68.2083 L383.025,74.4524 L379.144,80.5896 L375.19,86.6196 L371.164,92.5417 L367.07,98.3564 L362.911,104.063 L358.688,109.662 L354.405,115.153 L350.064,120.537 L345.668,125.813 L341.219,130.982 L336.721,136.044 L332.175,141 L327.583,145.85 L322.949,150.594 L318.275,155.233 L313.563,159.768 L308.814,164.199 L304.032,168.528 L299.218,172.754 L294.375,176.878 L289.505,180.903 L284.608,184.827 L279.689,188.653 L274.748,192.381 L269.787,196.012 L264.808,199.547 L259.813,202.988 L254.802,206.335 L249.779,209.589 L244.744,212.753 L239.698,215.826 L234.645,218.81 L229.583,221.706 L224.515,224.515 L219.443,227.239 L214.366,229.879 L209.287,232.437 L204.206,234.912 L199.125,237.307 L194.043,239.623 L188.963,241.861 L183.885,244.023 L178.808,246.109 L173.736,248.12 L168.667,250.06 L163.604,251.927 L158.544,253.724 L153.491,255.451 L148.443,257.111 L143.402,258.703 L138.367,260.23 L133.339,261.692 L128.318,263.091 L123.304,264.427 L118.298,265.701 L113.299,266.916 L108.308,268.071 L103.324,269.167 L98.3469,270.206 L93.3777,271.188 L88.4155,272.115 L83.4604,272.986 L78.512,273.804 L73.5703,274.568 L68.6348,275.279 L63.7056,275.938 L58.7817,276.546 L53.8635,277.104 L48.9502,277.61 L44.0415,278.067 L39.1372,278.475 L34.2363,278.834 L29.3391,279.144 L24.4448,279.406 L19.553,279.62 L14.6628,279.786 L9.77466,279.905 L4.88721,279.976 L0,280 L-4.88721,279.976 L-9.77466,279.905 L-14.6628,279.786 L-19.553,279.62 L-24.4448,279.406 L-29.3391,279.144 L-34.2363,278.834 L-39.1372,278.475 L-44.0415,278.067 L-48.9502,277.61 L-53.8635,277.104 L-58.7817,276.546 L-63.7056,275.938 L-68.6348,275.279 L-73.5703,274.568 L-78.512,273.804 L-83.4604,272.986 L-88.4155,272.115 L-93.3777,271.188 L-98.3469,270.206 L-103.324,269.167 L-108.308,268.071 L-113.299,266.916 L-118.298,265.701 L-123.304,264.427 L-128.318,263.091 L-133.339,261.692 L-138.367,260.23 L-143.402,258.703 L-148.443,257.111 L-153.491,255.451 L-158.544,253.724 L-163.604,251.927 L-168.667,250.06 L-173.736,248.12 L-178.808,246.109 L-183.884,244.022 L-188.963,241.861 L-194.043,239.623 L-199.125,237.307 L-204.206,234.912 L-209.287,232.437 L-214.366,229.879 L-219.443,227.239 L-224.515,224.515 L-229.583,221.706 L-234.645,218.81 L-239.698,215.826 L-244.744,212.753 L-249.779,209.589 L-254.802,206.335 L-259.813,202.988 L-264.808,199.547 L-269.787,196.012 L-274.748,192.381 L-279.689,188.653 L-284.608,184.827 L-289.505,180.903 L-294.375,176.878 L-299.218,172.754 L-304.032,168.528 L-308.814,164.199 L-313.563,159.768 L-318.275,155.233 L-322.949,150.594 L-327.583,145.85 L-332.175,141 L-336.721,136.044 L-341.219,130.982 L-345.668,125.813 L-350.064,120.537 L-354.405,115.153 L-358.688,109.662 L-362.911,104.063 L-367.07,98.3564 L-371.164,92.5417 L-375.19,86.6196 L-379.144,80.5896 L-383.024,74.4526 L-386.828,68.2083 L-390.552,61.8574 L-394.193,55.4001 L-397.749,48.8374 L-401.216,42.1694 L-404.592,35.3972 L-407.874,28.5212 L-411.058,21.5427 L-414.143,14.4622 L-417.124,7.28101 L-420,0 L-422.766,-7.37939 L-425.421,-14.856 L-427.96,-22.4285 L-430.382,-30.0952 L-432.683,-37.8547 L-434.861,-45.7058 L-436.911,-53.646 L-438.833,-61.6738 L-440.621,-69.7876 L-442.275,-77.9851 L-443.79,-86.2642 L-445.165,-94.6228 L-446.396,-103.059 L-447.48,-111.57 L-448.416,-120.153 L-449.199,-128.806 L-449.829,-137.527 L-450.302,-146.312 L-450.615,-155.159 L-450.766,-164.065 L-450.752,-173.028 L-450.573,-182.043 L-450.224,-191.109 L-449.703,-200.221 L-449.01,-209.377 L-448.14,-218.573 L-447.093,-227.806 L-445.866,-237.072 L-444.458,-246.367 L-442.866,-255.689 L-441.09,-265.033 L-439.126,-274.396 L-436.973,-283.774 L-434.631,-293.163 L-432.098,-302.558 L-429.371,-311.957 L-426.45,-321.354 L-423.335,-330.745 L-420.022,-340.128 L-416.513,-349.496 L-412.805,-358.846 L-408.899,-368.174 L-404.793,-377.476 L-400.487,-386.746 L-395.98,-395.98 L-391.272,-405.174 L-386.363,-414.323 L-381.252,-423.423 L-375.939,-432.469 L-370.426,-441.456 L-364.711,-450.381 L-358.795,-459.237 L-352.679,-468.021 L-346.363,-476.728 L-339.847,-485.352 L-333.134,-493.89 L-326.222,-502.337 L-319.113,-510.688 L-311.809,-518.937 L-304.311,-527.081 L-296.619,-535.115 L-288.737,-543.034 L-280.664,-550.834 L-272.403,-558.509 L-263.956,-566.055 L-255.324,-573.467 L-246.51,-580.741 L-237.516,-587.873 L-228.344,-594.857 L-218.997,-601.689 L-209.477,-608.366 L-199.787,-614.881 L-189.93,-621.232 L-179.908,-627.413 L-169.725,-633.421 L-159.383,-639.25 L-148.887,-644.898 L-138.239,-650.36 L-127.442,-655.632 L-116.501,-660.709 L-105.419,-665.589 L-94.2,-670.267 L-82.8477,-674.74 L-71.3662,-679.003 L-59.7595,-683.054 L-48.032,-686.889 L-36.1877,-690.504 L-24.2314,-693.896 L-12.1672,-697.063 L0,-700 L12.2656,-702.705 L24.6252,-705.175 L37.0737,-707.406 L49.606,-709.397 L62.2173,-711.146 L74.9023,-712.648 L87.6563,-713.903 L100.474,-714.907 L113.349,-715.659 L126.278,-716.156 L139.253,-716.397 L152.271,-716.381 L165.326,-716.104 L178.411,-715.566 L191.521,-714.766 L204.651,-713.702 L217.794,-712.373 L230.946,-710.778 L244.1,-708.917 L257.25,-706.787 L270.39,-704.39 L283.515,-701.725 L296.619,-698.791 L309.696,-695.587 L322.739,-692.115 L335.743,-688.374 L348.701,-684.365 L361.609,-680.087 L374.459,-675.542 L387.246,-670.73 L399.964,-665.652 L412.607,-660.309 L425.169,-654.702 L437.643,-648.833 L450.025,-642.702 L462.308,-636.312 L474.486,-629.663 L486.553,-622.759 L498.504,-615.601 L510.333,-608.19 L522.033,-600.531 L533.601,-592.623 L545.028,-584.471 L556.312,-576.077 L567.444,-567.444 L578.421,-558.574 L589.236,-549.472 L599.885,-540.139 L610.362,-530.58 L620.662,-520.797 L630.78,-510.796 L640.71,-500.578 L650.449,-490.148 L659.99,-479.511 L669.329,-468.67 L678.462,-457.629 L687.384,-446.393 L696.09,-434.965 L704.576,-423.352 L712.837,-411.557 L720.87,-399.585 L728.671,-387.441 L736.235,-375.13 L743.558,-362.658 L750.637,-350.028 L757.469,-337.247 L764.049,-324.32 L770.375,-311.252 L776.442,-298.048 L782.249,-284.716 L787.792,-271.259 L793.068,-257.684 L798.074,-243.996 L802.809,-230.202 L807.269,-216.307 L811.451,-202.318 L815.355,-188.24 L818.978,-174.079 L822.318,-159.843 L825.374,-145.536 L828.143,-131.165 L830.625,-116.737 L832.817,-102.257 L834.72,-87.7327 L836.332,-73.1694 L837.651,-58.5745 L838.678,-43.9531 L839.412,-29.3127 L839.853,-14.6597 L840,0 L839.853,14.6597 L839.412,29.3127 L838.678,43.9531 L837.651,58.5745 L836.332,73.1694 L834.72,87.7327 L832.817,102.257 L830.625,116.737 L828.143,131.165 L825.374,145.536 L822.318,159.843 L818.978,174.079 L815.355,188.24 L811.451,202.318 L807.269,216.307 L802.809,230.202 L798.074,243.996 L793.068,257.684 L787.792,271.259 L782.249,284.716 L776.442,298.048 L770.375,311.252 L764.049,324.32 L757.469,337.247 L750.637,350.028 L743.558,362.658 L736.235,375.13 L728.671,387.441 L720.87,399.585 L712.837,411.557 L704.576,423.352 L696.09,434.965 L687.384,446.393 L678.462,457.629 L669.329,468.67 L659.99,479.511 L650.449,490.148 L640.71,500.578 L630.78,510.796 L620.662,520.797 L610.362,530.58 L599.885,540.139 L589.236,549.472 L578.421,558.574 L567.444,567.444 L556.312,576.077 L545.028,584.471 L533.601,592.623 L522.033,600.531 L510.333,608.19 L498.504,615.601 L486.553,622.759 L474.486,629.663 L462.308,636.312 L450.025,642.702 L437.643,648.833 L425.169,654.702 L412.607,660.309 L399.964,665.652 L387.246,670.73 L374.459,675.542 L361.609,680.087 L348.701,684.365 L335.743,688.374 L322.739,692.115 L309.696,695.587 L296.619,698.791 L283.515,701.725 L270.39,704.39 L257.25,706.787 L244.1,708.917 L230.946,710.778 L217.794,712.373 L204.651,713.702 L191.521,714.766 L178.411,715.566 L165.326,716.104 L152.271,716.381 L139.253,716.397 L126.278,716.156 L113.349,715.659 L100.474,714.907 L87.6563,713.903 L74.9023,712.648 L62.2173,711.146 L49.606,709.397 L37.0737,707.406 L24.6252,705.175 L12.2656,702.705 L0,700 L-12.1672,697.063 L-24.2314,693.896 L-36.1877,690.504 L-48.032,686.889 L-59.7595,683.054 L-71.3662,679.003 L-82.8477,674.74 L-94.2,670.267 L-105.419,665.589 L-116.501,660.709 L-127.442,655.632 L-138.239,650.36 L-148.886,644.898 L-159.383,639.251 L-169.725,633.421 L-179.908,627.413 L-189.93,621.232 L-199.787,614.881 L-209.477,608.366 L-218.997,601.69 L-228.344,594.857 L-237.516,587.873 L-246.51,580.741 L-255.324,573.467 L-263.956,566.055 L-272.403,558.509 L-280.664,550.834 L-288.736,543.034 L-296.619,535.115 L-304.311,527.081 L-311.809,518.937 L-319.113,510.688 L-326.222,502.337 L-333.133,493.89 L-339.847,485.352 L-346.363,476.728 L-352.679,468.021 L-358.796,459.237 L-364.711,450.381 L-370.426,441.456 L-375.94,432.469 L-381.252,423.423 L-386.362,414.323 L-391.272,405.174 L-395.98,395.98 L-400.486,386.746 L-404.793,377.476 L-408.899,368.174 L-412.805,358.846 L-416.513,349.496 L-420.022,340.128 L-423.334,330.745 L-426.45,321.354 L-429.371,311.957 L-432.097,302.558 L-434.631,293.163 L-436.973,283.774 L-439.126,274.396 L-441.09,265.034 L-442.866,255.689 L-444.458,246.367 L-445.866,237.072 L-447.093,227.806 L-448.14,218.573 L-449.01,209.377 L-449.703,200.221 L-450.223,191.109 L-450.573,182.043 L-450.752,173.028 L-450.766,164.065 L-450.615,155.159 L-450.302,146.312 L-449.829,137.527 L-449.199,128.806 L-448.416,120.153 L-447.48,111.569 L-446.396,103.059 L-445.165,94.6228 L-443.79,86.2642 L-442.275,77.9851 L-440.621,69.7876 L-438.832,61.6738 L-436.911,53.646 L-434.861,45.7058 L-432.683,37.855 L-430.382,30.0952 L-427.96,22.4285 L-425.421,14.8562 L-422.766,7.37939 L-420,0 L-417.124,-7.28101 L-414.143,-14.4622 L-411.058,-21.5427 L-407.874,-28.5215 L-404.592,-35.3972 L-401.216,-42.1694 L-397.749,-48.8374 L-394.193,-55.4004 L-390.552,-61.8574 L-386.828,-68.2083 L-383.025,-74.4524 L-379.144,-80.5896 L-375.19,-86.6194 L-371.164,-92.5417 L-367.07,-98.3564 L-362.911,-104.063 L-358.688,-109.662 L-354.405,-115.153 L-350.064,-120.537 L-345.668,-125.813 L-341.219,-130.982 L-336.721,-136.044 L-332.175,-141 L-327.583,-145.85 L-322.949,-150.594 L-318.275,-155.233 L-313.563,-159.768 L-308.814,-164.199 L-304.032,-168.528 L-299.218,-172.754 L-294.375,-176.878 L-289.505,-180.903 L-284.608,-184.827 L-279.689,-188.653 L-274.748,-192.381 L-269.787,-196.012 L-264.808,-199.547 L-259.813,-202.988 L-254.802,-206.335 L-249.779,-209.589 L-244.744,-212.753 L-239.698,-215.826 L-234.645,-218.81 L-229.583,-221.706 L-224.515,-224.515 L-219.443,-227.239 L-214.366,-229.88 L-209.287,-232.437 L-204.206,-234.912 L-199.125,-237.307 L-194.043,-239.623 L-188.963,-241.861 L-183.885,-244.023 L-178.808,-246.109 L-173.736,-248.12 L-168.667,-250.06 L-163.604,-251.927 L-158.544,-253.723 L-153.491,-255.451 L-148.443,-257.111 L-143.402,-258.703 L-138.367,-260.23 L-133.339,-261.692 L-128.318,-263.091 L-123.304,-264.427 L-118.298,-265.701 L-113.299,-266.916 L-108.308,-268.071 L-103.324,-269.167 L-98.3469,-270.206 L-93.3777,-271.188 L-88.4155,-272.115 L-83.4604,-272.986 L-78.512,-273.804 L-73.5703,-274.568 L-68.6348,-275.279 L-63.7056,-275.938 L-58.7817,-276.546 L-53.8635,-277.104 L-48.9502,-277.61 L-44.0415,-278.067 L-39.1372,-278.475 L-34.2366,-278.834 L-29.3391,-279.144 L-24.4448,-279.406 L-19.553,-279.62 L-14.6628,-279.786 L-9.77466,-279.905 L-4.88721,-279.976 L0,-280 L4.88721,-279.976 L9.77466,-279.905 L14.6628,-279.786 L19.553,-279.62 L24.4448,-279.406 L29.3391,-279.144 L34.2366,-278.834 L39.1372,-278.475 L44.0415,-278.067 L48.9502,-277.61 L53.8635,-277.104 L58.7817,-276.546 L63.7056,-275.938 L68.6348,-275.279 L73.5703,-274.568 L78.512,-273.804 L83.4604,-272.986 L88.4155,-272.115 L93.3777,-271.188 L98.3469,-270.206 L103.324,-269.167 L108.308,-268.071 L113.299,-266.916 L118.298,-265.701 L123.304,-264.427 L128.318,-263.091 L133.339,-261.692 L138.367,-260.23 L143.402,-258.703 L148.443,-257.111 L153.491,-255.451 L158.544,-253.723 L163.604,-251.927 L168.667,-250.06 L173.736,-248.12 L178.808,-246.109 L183.885,-244.023 L188.963,-241.861 L194.043,-239.623 L199.125,-237.307 L204.206,-234.912 L209.287,-232.437 L214.366,-229.88 L219.443,-227.239 L224.515,-224.515 L229.583,-221.706 L234.645,-218.81 L239.698,-215.826 L244.744,-212.753 L249.779,-209.589 L254.802,-206.335 L259.813,-202.988 L264.808,-199.547 L269.787,-196.012 L274.748,-192.381 L279.689,-188.653 L284.608,-184.827 L289.505,-180.903 L294.375,-176.878 L299.218,-172.754 L304.032,-168.528 L308.814,-164.199 L313.563,-159.768 L318.275,-155.233 L322.949,-150.594 L327.583,-145.85 L332.175,-141 L336.721,-136.044 L341.219,-130.982 L345.668,-125.813 L350.064,-120.537 L354.405,-115.153 L358.688,-109.662 L362.911,-104.063 L367.07,-98.3564 L371.164,-92.5417 L375.19,-86.6194 L379.144,-80.5896 L383.025,-74.4524 L386.828,-68.2083 L390.552,-61.8574 L394.193,-55.4004 L397.749,-48.8374 L401.216,-42.1694 L404.592,-35.3972 L407.874,-28.5215 L411.058,-21.5427 L414.143,-14.4622 L417.124,-7.28101 L420,0 L422.766,7.37939 L425.421,14.8562 L427.96,22.4285 L430.382,30.0952 L432.683,37.855 L434.861,45.7058 L436.911,53.646 L438.832,61.6738 L440.621,69.7876 L442.275,77.9851 L443.79,86.2642 L445.165,94.6228 L446.396,103.059 L447.48,111.569 L448.416,120.153 L449.199,128.806 L449.829,137.527 L450.302,146.312 L450.615,155.159 L450.766,164.065 L450.752,173.028 L450.573,182.043 L450.223,191.109 L449.703,200.221 L449.01,209.377 L448.14,218.573 L447.093,227.806 L445.866,237.072 L444.458,246.367 L442.866,255.689 L441.09,265.034 L439.126,274.396 L436.973,283.774 L434.631,293.163 L432.097,302.558 L429.371,311.957 L426.45,321.354 L423.334,330.745 L420.022,340.128 L416.513,349.496 L412.805,358.846 L408.899,368.174 L404.793,377.476 L400.486,386.746 L395.98,395.98Z" />
  </defs>
  <g
     transform="translate(348,300) scale(0.375,-0.375)"
     fill="none"
     id="g3779">
    <use
       xlink:href="#Main"
       stroke-width="127.4"
       stroke="#000000"
       id="use3755" />
    <use
       xlink:href="#Main"
       stroke-width="49"
       stroke="#ebf5ff"
       id="use3757" />
    <g
       stroke-width="127.4"
       stroke="#000000"
       id="g3767">
      <path
         d="M228.344,594.857 L218.997,601.689 L209.477,608.366 L199.787,614.881 L189.93,621.232 L179.908,627.413 L169.725,633.421 L159.383,639.25 L148.887,644.898 L138.239,650.36 L127.442,655.632 L116.501,660.709 L105.419,665.589 L94.2,670.267 L82.8477,674.74 L71.3662,679.003 L59.7595,683.054 L48.032,686.889 L36.1877,690.504 L24.2314,693.896 L12.1672,697.063 L0,700 L-12.2656,702.705 L-24.6252,705.175 L-37.0737,707.406 L-49.606,709.397 L-62.2173,711.146 L-74.9023,712.648 L-87.6563,713.903 L-100.474,714.907 L-113.349,715.659 L-126.278,716.156 L-139.253,716.397 L-152.271,716.381 L-165.326,716.104 L-178.411,715.566 L-191.521,714.766 L-204.651,713.702 L-217.794,712.373 L-230.946,710.778 L-244.1,708.917"
         id="path3759" />
      <path
         d="M450.615,-155.159 L450.302,-146.312 L449.829,-137.527 L449.199,-128.806 L448.416,-120.153 L447.48,-111.57 L446.396,-103.059 L445.165,-94.6228 L443.79,-86.2642 L442.275,-77.9851 L440.621,-69.7876 L438.832,-61.6741 L436.911,-53.646 L434.861,-45.7058 L432.683,-37.855 L430.382,-30.0952 L427.96,-22.4285 L425.421,-14.856 L422.766,-7.37939 L420,0 L417.124,7.28101 L414.143,14.4622 L411.058,21.5427 L407.874,28.5215 L404.592,35.397 L401.216,42.1694 L397.749,48.8374 L394.193,55.4001 L390.552,61.8574 L386.828,68.2083 L383.025,74.4524 L379.144,80.5896 L375.19,86.6196 L371.164,92.5417 L367.07,98.3564 L362.911,104.063 L358.688,109.662 L354.405,115.153 L350.064,120.537 L345.668,125.813 L341.219,130.982"
         id="path3761" />
      <path
         d="M-228.344,-594.857 L-218.997,-601.689 L-209.477,-608.366 L-199.787,-614.881 L-189.93,-621.232 L-179.908,-627.413 L-169.725,-633.421 L-159.383,-639.25 L-148.887,-644.898 L-138.239,-650.36 L-127.442,-655.632 L-116.501,-660.709 L-105.419,-665.589 L-94.2,-670.267 L-82.8477,-674.74 L-71.3662,-679.003 L-59.7595,-683.054 L-48.032,-686.889 L-36.1877,-690.504 L-24.2314,-693.896 L-12.1672,-697.063 L0,-700 L12.2656,-702.705 L24.6252,-705.175 L37.0737,-707.406 L49.606,-709.397 L62.2173,-711.146 L74.9023,-712.648 L87.6563,-713.903 L100.474,-714.907 L113.349,-715.659 L126.278,-716.156 L139.253,-716.397 L152.271,-716.381 L165.326,-716.104 L178.411,-715.566 L191.521,-714.766 L204.651,-713.702 L217.794,-712.373 L230.946,-710.778 L244.1,-708.917"
         id="path3763" />
      <path
         d="M-450.615,155.159 L-450.302,146.312 L-449.829,137.527 L-449.199,128.806 L-448.416,120.153 L-447.48,111.569 L-446.396,103.059 L-445.165,94.6228 L-443.79,86.2642 L-442.275,77.9851 L-440.621,69.7876 L-438.832,61.6738 L-436.911,53.646 L-434.861,45.7058 L-432.683,37.855 L-430.382,30.0952 L-427.96,22.4285 L-425.421,14.8562 L-422.766,7.37939 L-420,0 L-417.124,-7.28101 L-414.143,-14.4622 L-411.058,-21.5427 L-407.874,-28.5215 L-404.592,-35.3972 L-401.216,-42.1694 L-397.749,-48.8374 L-394.193,-55.4004 L-390.552,-61.8574 L-386.828,-68.2083 L-383.025,-74.4524 L-379.144,-80.5896 L-375.19,-86.6194 L-371.164,-92.5417 L-367.07,-98.3564 L-362.911,-104.063 L-358.688,-109.662 L-354.405,-115.153 L-350.064,-120.537 L-345.668,-125.813 L-341.219,-130.982"
         id="path3765" />
    </g>
    <g
       stroke-width="49"
       stroke="#ebf5ff"
       id="g3777">
      <path
         d="M237.516,587.873 L228.344,594.857 L218.997,601.689 L209.477,608.366 L199.787,614.881 L189.93,621.232 L179.908,627.413 L169.725,633.421 L159.383,639.25 L148.887,644.898 L138.239,650.36 L127.442,655.632 L116.501,660.709 L105.419,665.589 L94.2,670.267 L82.8477,674.74 L71.3662,679.003 L59.7595,683.054 L48.032,686.889 L36.1877,690.504 L24.2314,693.896 L12.1672,697.063 L0,700 L-12.2656,702.705 L-24.6252,705.175 L-37.0737,707.406 L-49.606,709.397 L-62.2173,711.146 L-74.9023,712.648 L-87.6563,713.903 L-100.474,714.907 L-113.349,715.659 L-126.278,716.156 L-139.253,716.397 L-152.271,716.381 L-165.326,716.104 L-178.411,715.566 L-191.521,714.766 L-204.651,713.702 L-217.794,712.373 L-230.946,710.778 L-244.1,708.917 L-257.25,706.787"
         id="path3769" />
      <path
         d="M450.766,-164.065 L450.615,-155.159 L450.302,-146.312 L449.829,-137.527 L449.199,-128.806 L448.416,-120.153 L447.48,-111.57 L446.396,-103.059 L445.165,-94.6228 L443.79,-86.2642 L442.275,-77.9851 L440.621,-69.7876 L438.832,-61.6741 L436.911,-53.646 L434.861,-45.7058 L432.683,-37.855 L430.382,-30.0952 L427.96,-22.4285 L425.421,-14.856 L422.766,-7.37939 L420,0 L417.124,7.28101 L414.143,14.4622 L411.058,21.5427 L407.874,28.5215 L404.592,35.397 L401.216,42.1694 L397.749,48.8374 L394.193,55.4001 L390.552,61.8574 L386.828,68.2083 L383.025,74.4524 L379.144,80.5896 L375.19,86.6196 L371.164,92.5417 L367.07,98.3564 L362.911,104.063 L358.688,109.662 L354.405,115.153 L350.064,120.537 L345.668,125.813 L341.219,130.982 L336.721,136.044"
         id="path3771" />
      <path
         d="M-237.516,-587.873 L-228.344,-594.857 L-218.997,-601.689 L-209.477,-608.366 L-199.787,-614.881 L-189.93,-621.232 L-179.908,-627.413 L-169.725,-633.421 L-159.383,-639.25 L-148.887,-644.898 L-138.239,-650.36 L-127.442,-655.632 L-116.501,-660.709 L-105.419,-665.589 L-94.2,-670.267 L-82.8477,-674.74 L-71.3662,-679.003 L-59.7595,-683.054 L-48.032,-686.889 L-36.1877,-690.504 L-24.2314,-693.896 L-12.1672,-697.063 L0,-700 L12.2656,-702.705 L24.6252,-705.175 L37.0737,-707.406 L49.606,-709.397 L62.2173,-711.146 L74.9023,-712.648 L87.6563,-713.903 L100.474,-714.907 L113.349,-715.659 L126.278,-716.156 L139.253,-716.397 L152.271,-716.381 L165.326,-716.104 L178.411,-715.566 L191.521,-714.766 L204.651,-713.702 L217.794,-712.373 L230.946,-710.778 L244.1,-708.917 L257.25,-706.787"
         id="path3773" />
      <path
         d="M-450.766,164.065 L-450.615,155.159 L-450.302,146.312 L-449.829,137.527 L-449.199,128.806 L-448.416,120.153 L-447.48,111.569 L-446.396,103.059 L-445.165,94.6228 L-443.79,86.2642 L-442.275,77.9851 L-440.621,69.7876 L-438.832,61.6738 L-436.911,53.646 L-434.861,45.7058 L-432.683,37.855 L-430.382,30.0952 L-427.96,22.4285 L-425.421,14.8562 L-422.766,7.37939 L-420,0 L-417.124,-7.28101 L-414.143,-14.4622 L-411.058,-21.5427 L-407.874,-28.5215 L-404.592,-35.3972 L-401.216,-42.1694 L-397.749,-48.8374 L-394.193,-55.4004 L-390.552,-61.8574 L-386.828,-68.2083 L-383.025,-74.4524 L-379.144,-80.5896 L-375.19,-86.6194 L-371.164,-92.5417 L-367.07,-98.3564 L-362.911,-104.063 L-358.688,-109.662 L-354.405,-115.153 L-350.064,-120.537 L-345.668,-125.813 L-341.219,-130.982 L-336.721,-136.044"
         id="path3775" />
    </g>
  </g>
  <path
     style="fill:#000080;stroke-width:0.3726708"
     d="m 391.41615,577.60655 c -44.09467,-1.81379 -86.93466,-15.47005 -123.18397,-39.26788 -14.87621,-9.76628 -25.69344,-18.73129 -38.7415,-32.10779 -28.71595,-29.43883 -48.25539,-66.31934 -56.05118,-105.7961 -2.33598,-11.82905 -3.21785,-20.37156 -3.4683,-33.59697 -0.22005,-11.61991 0.14563,-18.9651 1.42579,-28.63905 0.68953,-5.21064 2.46319,-15.11365 2.76024,-15.41153 0.0724,-0.0726 0.91801,1.4367 1.87909,3.35404 2.51896,5.02524 6.13243,11.33388 9.6986,16.93244 l 3.10524,4.87495 -0.39785,5.74617 c -0.4195,6.05883 -0.2158,17.86531 0.42707,24.75237 3.90322,41.81546 22.22431,81.68017 51.89563,112.91926 12.06163,12.69894 23.12726,22.01821 37.17288,31.30636 30.18088,19.95809 64.66011,31.95265 102.85714,35.78169 8.23178,0.8252 25.82238,1.12069 34.80738,0.58472 60.07768,-3.58371 116.0813,-28.65555 159.82703,-71.55183 45.90172,-45.01039 73.36808,-105.19071 77.78206,-170.42503 0.51004,-7.53792 0.51004,-26.58682 0,-34.12474 C 648.79722,217.6994 621.33391,157.52568 575.42944,112.51259 535.15524,73.020455 484.19164,48.468811 429.33751,42.132995 l -6.42648,-0.742277 -4.47027,-2.458529 C 409.4734,34.000374 395.9155,27.766444 386.84738,24.405532 c -2.10288,-0.77939 -3.7721,-1.46839 -3.70938,-1.531111 0.0627,-0.06272 4.48817,-0.291887 9.83432,-0.509259 19.27897,-0.783873 39.61764,0.824458 59.18917,4.680531 70.42387,13.875232 132.99511,56.246654 173.31552,117.364247 6.7421,10.21962 10.63934,16.95606 16.3857,28.32298 30.68709,60.70204 38.39925,130.40397 21.7304,196.39751 -5.25243,20.79492 -12.06008,39.00787 -21.7304,58.13665 -5.74636,11.36691 -9.6436,18.10334 -16.3857,28.32298 -37.77623,57.2611 -95.29032,98.27531 -160.64471,114.55823 -17.16046,4.2755 -34.14871,6.69503 -52.54659,7.4839 -9.38839,0.40256 -10.49256,0.40121 -20.86956,-0.0257 z"
     id="path3866"
     inkscape:connector-curvature="0" />
  <path
     style="fill:#000080;stroke-width:0.3726708"
     d="M 282.55133,577.63155 C 197.54836,573.82073 118.50827,528.32601 70.522983,455.59006 63.780902,445.37042 59.883666,438.63399 54.137279,427.26708 38.768344,396.86583 29.210887,364.67174 25.482878,330.74534 24.266586,319.67659 23.989223,313.96736 23.989223,300 c 0,-13.96736 0.277363,-19.67659 1.493655,-30.74534 3.029081,-27.56588 9.916736,-53.92723 20.934736,-80.12423 3.399337,-8.08244 11.384626,-23.98813 15.903119,-31.67701 30.606991,-52.08228 76.523847,-92.378568 131.213627,-115.152089 43.48674,-18.108429 90.48641,-24.129091 136.56,-17.493347 47.24869,6.804989 92.15683,27.756269 126.0613,58.81219 34.7535,31.833606 57.71024,71.916806 66.40484,115.945046 2.33597,11.82905 3.21786,20.37156 3.4683,33.59697 0.22006,11.61991 -0.14564,18.9651 -1.42581,28.63905 -0.68951,5.21064 -2.46316,15.11365 -2.76022,15.41153 -0.0724,0.0726 -0.918,-1.4367 -1.87908,-3.35404 -2.51896,-5.02524 -6.13245,-11.33388 -9.69861,-16.93244 l -3.10524,-4.87495 0.39786,-5.74617 c 0.41948,-6.05883 0.21578,-17.86531 -0.42708,-24.75237 -4.9074,-52.57321 -32.526,-101.44703 -76.3977,-135.193198 C 397.73814,60.979964 358.93927,45.929614 315.20497,41.545486 306.97319,40.720294 289.38259,40.424791 280.39759,40.960758 218.51607,44.652074 161.02399,71.129299 116.75494,116.32424 73.127553,160.86408 47.078095,219.54189 42.788491,282.93763 c -0.510045,7.53792 -0.510045,26.58682 0,34.12474 4.289604,63.39574 30.339062,122.07357 73.966449,166.61339 40.86137,41.71599 93.26545,67.64889 149.92689,74.19347 l 6.44581,0.74452 5.11143,2.78892 c 9.36879,5.11178 20.32934,10.13963 30.6305,14.05085 l 4.28571,1.62723 -3.1648,0.23489 c -6.0373,0.44802 -20.72075,0.61711 -27.43915,0.31591 z"
     id="path3868"
     inkscape:connector-curvature="0" />
  <path
     style="fill:#0000d4;stroke-width:0.3726708"
     d="m 392.7205,544.59901 c -5.85885,-0.30824 -13.788,-0.99929 -13.78216,-1.20117 0.004,-0.12657 1.97416,-1.05068 4.37889,-2.05356 37.67676,-15.71301 71.25454,-43.40779 93.35221,-76.99645 35.67211,-54.22191 41.07409,-120.6214 14.20443,-174.59628 -20.28426,-40.74634 -56.26657,-69.41767 -100.9484,-80.43744 -14.73825,-3.63486 -25.35815,-4.86792 -41.92547,-4.86792 -9.00385,0 -13.59405,0.16535 -17.8882,0.6444 -38.0438,4.24406 -69.7941,18.73796 -95.15847,43.43953 -7.80339,7.59948 -16.6872,18.66968 -22.35943,27.86232 -1.67261,2.7107 -3.14135,4.81301 -3.26388,4.67178 -0.75732,-0.87288 -3.74123,-13.88327 -4.679,-20.40132 l -0.64634,-4.49238 2.39514,-3.14737 c 8.91858,-11.7196 20.86633,-23.44035 33.31138,-32.6785 23.24061,-17.25185 51.25577,-28.51652 81.27017,-32.67806 9.90986,-1.37402 12.46486,-1.51752 27.01863,-1.51752 14.55377,0 17.10877,0.1435 27.01863,1.51752 47.39398,6.57125 88.62379,30.51064 116.10184,67.41256 20.31905,27.28768 32.0809,59.45115 34.66817,94.80214 0.55582,7.59436 0.25768,25.85295 -0.53642,32.85163 -1.76807,15.58255 -4.56009,28.32481 -9.34981,42.67081 -8.51726,25.51061 -21.14213,47.97376 -39.16727,69.68944 -5.14598,6.19959 -20.529,21.57782 -26.80967,26.80132 -9.00411,7.48852 -20.82305,15.98199 -28.81826,20.70973 l -2.7313,1.61508 -4.90845,0.29295 c -4.62499,0.27604 -16.22701,0.32456 -20.74696,0.0868 z"
     id="path3870"
     inkscape:connector-curvature="0" />
  <path
     style="fill:#0000d4;stroke-width:0.3726708"
     d="m 334.77019,413.81158 c -0.81988,-0.0783 -3.41926,-0.32304 -5.7764,-0.54389 -24.73743,-2.31767 -50.03272,-10.0411 -70.57675,-21.54926 -21.31587,-11.94052 -39.26464,-27.62969 -53.53751,-46.79758 -20.31905,-27.28768 -32.0809,-59.45115 -34.66817,-94.80214 -0.55582,-7.59436 -0.25768,-25.85295 0.53642,-32.85163 1.66268,-14.65373 4.41433,-27.5931 8.65447,-40.69691 8.46387,-26.15687 21.46071,-49.51866 39.86839,-71.66334 5.18733,-6.240411 20.5647,-21.617646 26.80389,-26.803649 9.01913,-7.496672 20.83093,-15.984353 28.81249,-20.703974 l 2.72553,-1.611649 5.65956,-0.349419 c 8.89852,-0.549391 33.81538,0.315555 33.78955,1.172946 -0.004,0.121667 -1.97416,1.039727 -4.37889,2.040133 -2.40471,1.000406 -7.8101,3.53304 -12.01196,5.628075 -23.36212,11.648275 -41.82528,25.318395 -59.9058,44.354247 -43.23763,45.52221 -61.56276,108.52135 -48.32643,166.13923 10.68788,46.52443 40.79493,84.68249 82.70428,104.82048 16.90812,8.12458 34.5386,13.03701 54.96894,15.31616 4.29415,0.47904 8.88435,0.6444 17.8882,0.6444 16.56732,0 27.18722,-1.23306 41.92547,-4.86792 39.39404,-9.71566 72.93742,-33.78518 93.48063,-67.07833 1.67261,-2.7107 3.14135,-4.81301 3.26388,-4.67178 0.75732,0.87288 3.74123,13.88327 4.67901,20.40132 l 0.64633,4.49238 -2.39514,3.14737 c -15.58828,20.48402 -37.85762,38.46358 -61.47596,49.63375 -18.20983,8.61225 -36.96262,13.83377 -59.43426,16.54885 -4.57424,0.55267 -29.86891,1.03898 -33.91977,0.65213 z"
     id="path3872"
     inkscape:connector-curvature="0" />
  <path
     style="fill:#999999;stroke-width:0.3726708"
     d="m 340.36025,381.01268 c -29.8874,-1.60044 -57.74935,-11.00889 -79.39879,-26.81145 -6.71163,-4.89901 -9.51286,-7.27275 -15.57798,-13.20065 -10.79854,-10.5542 -19.97758,-23.11764 -26.72639,-36.58069 l -2.22439,-4.43736 1.26601,-2.7401 c 1.79343,-3.88165 6.93937,-12.75858 10.06741,-17.36665 8.3074,-12.23805 19.33733,-23.72482 31.53823,-32.84447 17.74886,-13.26652 38.96401,-22.10854 62.42236,-26.01633 16.63023,-2.77034 35.91635,-2.77034 52.54658,0 25.86872,4.30931 48.32992,14.31717 68.01242,30.30373 4.79331,3.89323 13.68046,12.86361 18.10688,18.27646 6.76876,8.2772 12.40499,16.91756 16.95032,25.98494 l 2.22439,4.43736 -1.26601,2.7401 c -1.79344,3.88165 -6.93937,12.75858 -10.06741,17.36665 -8.3074,12.23805 -19.33733,23.72482 -31.53823,32.84447 -20.30165,15.17461 -44.92181,24.47596 -72.32765,27.32492 -5.46848,0.56848 -19.16125,0.97859 -24.00775,0.71907 z"
     id="path3902"
     inkscape:connector-curvature="0" />
  <path
     style="fill:#e6e6e6;stroke-width:0.3726708"
     d="m 335.32919,380.8569 c -21.31132,-2.00381 -39.15053,-6.88008 -55.95037,-15.29379 -26.09202,-13.06742 -47.18257,-34.15032 -60.59404,-60.57205 l -2.47945,-4.88471 0.63675,-1.66732 c 1.01786,-2.66521 6.75098,-12.74823 10.13114,-17.81791 9.44732,-14.16947 22.86517,-27.67163 36.88951,-37.12133 19.5038,-13.14179 40.80941,-20.79143 66.52174,-23.88421 7.63564,-0.91844 27.39542,-0.91844 35.03106,0 25.43052,3.05888 46.60567,10.59755 65.96273,23.48371 19.15508,12.7517 35.00628,30.74113 45.73964,51.90965 l 2.47677,4.88471 -0.63676,1.66732 c -1.01785,2.66521 -6.75098,12.74823 -10.13113,17.81791 -9.44732,14.16947 -22.86517,27.67163 -36.88951,37.12133 -19.39791,13.07044 -40.94041,20.83115 -66.14907,23.83029 -5.89457,0.70129 -25.16806,1.03329 -30.55901,0.5264 z"
     id="path3906"
     inkscape:connector-curvature="0" />
  <path
     style="fill:#e6e6e6;stroke-width:0.3726708"
     d="M 237.9276,537.74676 C 184.60647,523.79139 139.02456,492.94815 105.77203,448.32298 68.855359,398.78052 51.754617,335.99143 58.271106,273.91304 65.036684,209.46174 96.406304,150.45887 145.6823,109.502 c 27.03514,-22.470878 58.41934,-38.524544 92.37896,-47.253745 3.15814,-0.811788 5.78531,-1.432745 5.83815,-1.379904 0.0528,0.05284 -0.86161,0.841186 -2.0321,1.751877 -9.29698,7.233399 -23.90075,21.30281 -32.28791,31.10648 -31.07173,36.319452 -49.6783,79.827372 -53.68,125.520482 -2.26202,25.82863 0.30974,51.29708 7.66857,75.94308 l 1.51263,5.06605 -1.32052,4.25072 c -2.70109,8.69475 -5.1275,19.54912 -6.55633,29.32933 -2.68222,18.35946 -2.67887,40.15153 0.009,58.57285 6.79304,46.55633 28.3243,89.65683 62.2827,124.67521 6.70548,6.9148 16.28792,15.56814 23.4114,21.14147 0.71739,0.56128 1.13664,1.00923 0.93168,0.99544 -0.20497,-0.0138 -2.86488,-0.67736 -5.91091,-1.47458 z"
     id="path3908"
     inkscape:connector-curvature="0" />
  <path
     style="fill:#e6e6e6;stroke-width:0.3726708"
     d="m 203.16103,228.23093 c 0.56973,-13.42856 3.47542,-28.75768 8.10142,-42.73951 15.14393,-45.77172 49.30841,-84.53891 94.81208,-107.585372 11.30972,-5.728087 23.55656,-10.562751 35.70034,-14.093365 l 5.88668,-1.711458 2.68475,0.677433 c 4.78861,1.208291 17.44125,5.453677 23.55432,7.903268 7.53675,3.020077 21.58013,9.960587 28.13665,13.905675 25.84101,15.548659 46.09652,34.700509 62.1816,58.793549 16.91052,25.3294 27.41627,56.4757 28.62011,84.84978 l 0.25171,5.93278 -3.80024,-4.06138 c -13.96938,-14.92934 -31.27546,-27.90178 -50.09796,-37.55287 -47.93318,-24.57736 -108.06943,-28.21961 -159.95025,-9.68764 -27.64451,9.87469 -53.05546,26.42483 -72.53269,47.24051 l -3.80024,4.06138 z"
     id="path3910"
     inkscape:connector-curvature="0" />
  <path
     style="fill:#e6e6e6;stroke-width:0.3726708"
     d="m 453.09317,538.25814 c 16.99774,-13.71913 30.64184,-27.6628 42.60223,-43.53764 25.58499,-33.95859 40.82333,-73.06838 44.4052,-113.96769 2.26202,-25.82863 -0.30974,-51.29708 -7.66857,-75.94308 l -1.51263,-5.06605 1.32052,-4.25072 c 2.70109,-8.69475 5.1275,-19.54912 6.55633,-29.32933 2.68222,-18.35946 2.67887,-40.15153 -0.009,-58.57285 -6.08818,-41.72553 -23.99037,-80.65637 -52.35993,-113.864072 -8.29665,-9.711554 -23.0051,-23.878866 -32.29465,-31.10648 -1.17049,-0.910691 -2.0836,-1.700376 -2.02912,-1.754856 0.0545,-0.05448 2.94073,0.637773 6.41389,1.53834 17.00782,4.410012 31.501,9.893155 47.30863,17.898062 36.9094,18.69075 68.17434,46.523376 91.48019,81.437356 32.17184,48.19592 46.50015,106.45108 40.42261,164.34783 -6.69753,63.80304 -37.52267,122.30008 -86.06429,163.32473 -21.13579,17.86274 -46.06593,32.2554 -72.38465,41.78899 -6.8601,2.48497 -15.31733,5.06814 -22.0874,6.74631 -2.15218,0.53352 -4.24845,1.05861 -4.65839,1.16695 -0.49737,0.13144 -0.3114,-0.15328 0.55901,-0.8558 z"
     id="path3912"
     inkscape:connector-curvature="0" />
  <path
     style="fill:#e6e6e6;stroke-width:0.3726708"
     d="m 342.78261,536.43806 c -21.18532,-6.21922 -40.89544,-15.37055 -58.28231,-27.06025 -34.91384,-23.47359 -60.64306,-56.80215 -73.23785,-94.86923 -4.626,-13.98183 -7.53169,-29.31095 -8.10142,-42.7395 l -0.25172,-5.93279 3.80024,4.06138 c 19.47723,20.81568 44.88818,37.36582 72.53269,47.24051 37.41901,13.36617 79.52509,15.35509 118.88198,5.61551 35.25228,-8.72383 67.20715,-27.2505 91.16623,-52.85602 l 3.80024,-4.06138 -0.25171,5.93279 c -0.56974,13.42855 -3.47543,28.75767 -8.10143,42.7395 -16.63409,50.27565 -56.25845,91.99116 -108.0419,113.74373 -9.38369,3.94179 -26.43697,9.56567 -28.73943,9.47777 -0.48835,-0.0186 -2.81647,-0.60006 -5.17361,-1.29202 z"
     id="path3914"
     inkscape:connector-curvature="0" />
  <path
     style="fill:#ffffff;stroke-width:0.3726708"
     d="m 336.26087,380.98043 c -4.46422,-0.30535 -14.28164,-1.71644 -20.12422,-2.89251 -39.8243,-8.01634 -72.21251,-30.5685 -92.56035,-64.45049 -3.23758,-5.39102 -7.1291,-12.93539 -7.1291,-13.82098 0,-0.79437 3.783,-8.04852 7.09472,-13.60459 8.83961,-14.83024 21.78611,-29.09271 35.8674,-39.51323 19.83596,-14.67913 43.58537,-23.7687 70.70248,-27.05987 6.6938,-0.81241 27.66671,-0.93726 34.09938,-0.20298 43.91361,5.01265 78.48003,24.55812 102.31357,57.85287 4.93814,6.89842 13.02805,21.11958 13.02805,22.90184 0,0.75284 -4.10001,8.6316 -7.0764,13.59833 -23.58913,39.36334 -65.62058,64.20353 -113.48261,67.06715 -5.87635,0.35159 -18.40928,0.42021 -22.73292,0.12446 z"
     id="path3916"
     inkscape:connector-curvature="0" />
</svg>
